<svg xmlns="http://www.w3.org/2000/svg" width="16" height="16" viewBox="0 0 16 16" fill="none" stroke="currentColor" stroke-width="1.25" stroke-linecap="round" stroke-linejoin="round">
  <path d="M6.444 1L6.358 1.437L6.029 3.035C5.503 3.236 5.026 3.520 4.595 3.858L2.987 3.321L2.555 3.187L2.331 3.572L1.224 5.423L1 5.809L1.328 6.096L2.572 7.154C2.527 7.431 2.469 7.705 2.469 7.995C2.469 8.286 2.527 8.560 2.572 8.837L1.328 9.895L1 10.182L1.224 10.568L2.331 12.419L2.555 12.805L2.987 12.670L4.595 12.133C5.026 12.471 5.503 12.755 6.029 12.956L6.358 14.554L6.444 14.991H9.555L9.642 14.554L9.970 12.956C10.496 12.755 10.973 12.471 11.404 12.133L13.012 12.670L13.444 12.805L13.669 12.419L14.775 10.568L15 10.182L14.671 9.895L13.427 8.837C13.473 8.560 13.530 8.286 13.530 7.995C13.530 7.705 13.473 7.431 13.427 7.154L14.671 6.096L15 5.809L14.775 5.423L13.669 3.572L13.444 3.187L13.012 3.321L11.404 3.858C10.973 3.520 10.496 3.236 9.970 3.035L9.642 1.437L9.555 1Z"/>
  <circle cx="8" cy="7.995" r="2"/>
</svg>
